<svg width="693" height="631" viewBox="0 0 693 631" fill="none" xmlns="http://www.w3.org/2000/svg">
<path d="M527.823 480.667H528.133M540.242 380.667H558.871C587.805 380.667 602.271 380.667 613.684 385.74C628.898 392.507 640.988 405.487 647.291 421.82C652.016 434.073 652.016 449.603 652.016 480.667C652.016 511.73 652.016 527.26 647.291 539.513C640.988 555.847 628.898 568.827 613.684 575.593C602.271 580.667 587.805 580.667 558.871 580.667H186.291C157.357 580.667 142.891 580.667 131.479 575.593C116.264 568.827 104.175 555.847 97.8723 539.513C93.1455 527.26 93.1455 511.73 93.1455 480.667C93.1455 449.603 93.1455 434.073 97.8723 421.82C104.175 405.487 116.264 392.507 131.479 385.74C142.891 380.667 157.357 380.667 186.291 380.667H204.92M372.581 414V47.3333M372.581 414L279.436 314M372.581 414L465.726 314" stroke="white" stroke-width="66.6667" stroke-linecap="round" stroke-linejoin="round"/>
</svg>
