<svg width="800" height="736" viewBox="0 0 800 736" fill="none" xmlns="http://www.w3.org/2000/svg">
<path d="M649.599 185.385C614.872 123.409 546.524 87.8596 473.23 99.5635C444.459 39.1682 384.268 0.816406 316.582 0.816406C220.781 0.816406 142.834 78.7589 142.834 174.578C142.834 178.533 142.99 182.609 143.345 186.854C60.6595 205.696 1.52588e-05 280.351 1.52588e-05 366.328C1.52588e-05 467.93 82.6553 550.572 184.257 550.572H329.898V520.143H184.257C99.4315 520.143 30.4467 451.145 30.4467 366.333C30.4467 290.417 87.1211 225.032 162.309 214.272C166.341 213.701 169.967 211.531 172.384 208.243C174.788 204.973 175.828 200.862 175.174 196.851C173.887 188.604 173.237 181.335 173.237 174.591C173.237 95.5438 237.57 31.2414 316.587 31.2414C375.942 31.2414 428.294 67.0203 450.012 122.378C452.741 129.399 460.196 133.354 467.59 131.648C534.405 116.192 597.187 148.467 626.143 206.012C628.344 210.461 632.654 213.532 637.583 214.229C712.814 224.941 769.614 290.331 769.614 366.32C769.614 451.132 700.582 520.13 615.756 520.13H421.857V550.559H615.743C717.358 550.559 800 467.917 800 366.315C800 277.903 735.867 201.477 649.599 185.385Z" fill="#CCCCCE"/>
<path d="M470.349 358.713C476.439 352.636 476.439 342.808 470.349 336.73L383.523 249.891C380.486 246.867 376.532 245.364 372.546 245.364L372.269 245.412C372.191 245.412 372.113 245.364 372.035 245.364C368.003 245.364 364.022 246.928 361.059 249.891L274.233 336.735C268.155 342.812 268.155 352.64 274.233 358.717C280.31 364.808 290.138 364.808 296.215 358.717L356.472 298.456V719.603C356.472 728.223 363.415 735.184 372.035 735.184C380.608 735.184 387.586 728.223 387.586 719.603V297.915L448.371 358.713C454.426 364.808 464.272 364.808 470.349 358.713Z" fill="#616164"/>
</svg>
